<?xml version="1.0" encoding="UTF-8" standalone="no"?>
<svg
   height="20.040001"
   width="5.9699998"
   version="1.1"
   id="svg12"
   sodipodi:docname="1.svg"
   inkscape:version="1.1.1 (3bf5ae0d25, 2021-09-20)"
   xmlns:inkscape="http://www.inkscape.org/namespaces/inkscape"
   xmlns:sodipodi="http://sodipodi.sourceforge.net/DTD/sodipodi-0.dtd"
   xmlns="http://www.w3.org/2000/svg"
   xmlns:svg="http://www.w3.org/2000/svg">
  <defs
     id="defs16" />
  <sodipodi:namedview
     id="namedview14"
     pagecolor="#ffffff"
     bordercolor="#111111"
     borderopacity="1"
     inkscape:pageshadow="0"
     inkscape:pageopacity="0"
     inkscape:pagecheckerboard="1"
     showgrid="false"
     inkscape:zoom="45.254834"
     inkscape:cx="3.170932"
     inkscape:cy="8.0322911"
     inkscape:window-width="1920"
     inkscape:window-height="991"
     inkscape:window-x="-9"
     inkscape:window-y="-9"
     inkscape:window-maximized="1"
     inkscape:current-layer="svg12" />
  <path
     id="path1662-9"
     style="fill:#585e57;fill-opacity:1;stroke:none;stroke-width:1px;stroke-linecap:round;stroke-linejoin:round;stroke-opacity:1"
     d="M 2.864533,0.50006385 C 2.061832,0.52332955 1.256341,0.88547713 0.71218944,1.6758451 c 0,0 -0.4603826,2.1917004 0.0195312,2.9941406 0.073233,0.1224499 -1.28e-5,4.315e-4 0.40820336,0.3378906 L 2.434846,19.539127 C 3.786406,12.316991 4.401992,8.488175 4.932893,5.0410795 5.235818,4.6704206 5.171929,4.8160603 5.235627,4.6699857 5.77829,3.4255341 5.198517,1.6016263 5.198517,1.6016263 4.680503,0.88259663 3.774261,0.47369606 2.864533,0.50006385 Z" />
  <path
     id="path1662-9-3-7"
     style="fill:#000000;fill-opacity:0.25;stroke:none;stroke-width:1px;stroke-linecap:round;stroke-linejoin:round;stroke-opacity:1"
     d="m 2.8645334,0.50006388 c -0.802701,0.023266 -1.608193,0.38541325 -2.15234396,1.17578122 0,0 -0.460382,2.1917004 0.019531,2.9941406 0.07323,0.1224499 -1.3e-5,4.315e-4 0.40820296,0.3378906 0,0 0.686351,0.085387 0.556641,-0.048828 -0.560449,-0.5696629 -0.46891,-2.1587412 -0.023438,-3.25 0,0 0.700627,-0.87399595 1.191407,-1.20898442 z M 1.1399234,5.0078763 2.6494789,15.965229 1.9110058,6.1707134 c 1.056979,-0.03719 1.7811996,0.034794 2.7796986,0.1438032 l 0.046876,-0.6503907 c -1.085146,-0.045069 -2.153279,-0.098735 -3.125,0.054688 z"
     sodipodi:nodetypes="cccccccccccccc" />
  <path
     id="path1662-9-0"
     style="fill:#ffffff;fill-opacity:0.25;stroke:none;stroke-width:1px;stroke-linecap:round;stroke-linejoin:round;stroke-opacity:1"
     d="M 3.598909,0.57623575 C 3.606389,0.93887252 3.509065,1.158267 3.509065,1.158267 l 0.28125,0.2597656 0.296875,0.515625 -0.046875,0.75 0.109375,0.734375 -0.15625,0.765625 0.564453,0.8828125 0.375,-0.025391 C 5.235818,4.6704206 5.171929,4.8160603 5.235627,4.6699857 5.77829,3.4255341 5.198518,1.6016263 5.198518,1.6016263 4.821631,1.0784886 4.238632,0.72284827 3.598909,0.57623575 Z M 4.932893,5.0410795 3.704377,7.1875639 3.655549,9.6250639 2.8052496,12.654362 2.911409,15.474674 2.434846,19.539126 C 3.786407,12.31699 4.401992,8.488175 4.932893,5.0410795 Z"
     sodipodi:nodetypes="ccccccccccccccccccc" />
  <path
     id="path4314"
     style="fill:none;stroke:#000000;stroke-width:1px;stroke-linecap:round;stroke-linejoin:round;stroke-opacity:1"
     d="M 1.139924,5.0078763 2.435293,19.540437 C 3.7868538,12.318301 4.4010217,8.4881719 4.9319216,5.0410763 M 5.1974752,1.6029366 C 4.2223886,0.24946903 1.872103,-0.00922367 0.71124643,1.676895 c 0,0 -0.45945182,2.191082 0.0204617,2.9935222 0.0732333,0.1224499 0,0 0.40821587,0.3374591 0.917937,0.482955 2.9520732,0.6659875 3.7919976,0.0332 C 5.2348488,4.6704172 5.1711507,4.8164918 5.2348488,4.6704172 5.7775115,3.4259656 5.1974752,1.6029366 5.1974752,1.6029366 Z" />
</svg>
