<?xml version="1.0" encoding="UTF-8" standalone="no"?>
<svg
   height="82.991997"
   width="58.443001"
   version="1.1"
   id="svg8"
   sodipodi:docname="7.svg"
   inkscape:version="1.1.1 (3bf5ae0d25, 2021-09-20)"
   xmlns:inkscape="http://www.inkscape.org/namespaces/inkscape"
   xmlns:sodipodi="http://sodipodi.sourceforge.net/DTD/sodipodi-0.dtd"
   xmlns="http://www.w3.org/2000/svg"
   xmlns:svg="http://www.w3.org/2000/svg">
  <defs
     id="defs12" />
  <sodipodi:namedview
     id="namedview10"
     pagecolor="#ffffff"
     bordercolor="#111111"
     borderopacity="1"
     inkscape:pageshadow="0"
     inkscape:pageopacity="0"
     inkscape:pagecheckerboard="1"
     showgrid="false"
     inkscape:zoom="3.7656017"
     inkscape:cx="23.767782"
     inkscape:cy="56.431884"
     inkscape:window-width="1920"
     inkscape:window-height="991"
     inkscape:window-x="-9"
     inkscape:window-y="-9"
     inkscape:window-maximized="1"
     inkscape:current-layer="svg8" />
  <g
     id="g18594">
    <path
       id="path6006"
       style="fill:none;stroke:#000000;stroke-width:1px;stroke-linecap:round;stroke-linejoin:round;stroke-opacity:1"
       d="m 13.48533,41.945173 c -0.679474,-4.47407 -5.1263001,-10.224022 -9.0134672,-8.356235 0,0 -2.6797364,9.53269 -0.098608,13.078249 1.046367,1.437339 4.6764511,1.486134 4.6764511,1.486134 1.7486121,0.482882 3.5936681,-1.182335 4.4356241,-6.208148 z m 7.417332,0.375561 c 3.034151,-2.559123 4.990997,-6.539013 9.295137,-7.605113 4.30414,-1.0661 5.822174,2.034345 5.822174,2.034345 0.981543,1.608182 1.235706,4.698255 1.235706,4.698255 -5.272558,8.013023 -10.384383,8.632297 -16.353017,0.872513 z M 39.210656,74.743622 C 51.806989,56.158869 53.458781,49.639813 57.021176,36.991669 60.583571,24.343525 53.433636,4.8042858 41.53802,1.4132172 29.642405,-1.9778515 13.150163,4.525146 7.4099579,13.873162 c -5.7402046,9.348016 -8.20212208,35.333379 -6.247846,40.671775 1.9542761,5.338396 6.699858,13.327265 6.820463,15.014141 l 0.381235,5.332255 c -0.1097014,0.987312 2.0626391,1.846754 2.8996861,0.523506 0,0 0.02074,5.28532 1.826587,6.613163 1.805842,1.327843 3.826859,-1.117083 5.383919,-0.831072 1.557061,0.286012 3.105925,3.427274 7.690393,-1.243544 4.584467,-4.670818 6.294478,-4.65678 13.046261,-5.209764 z"
       sodipodi:nodetypes="ccscccsccccsssssccsssc" />
    <path
       id="path10345-87-0"
       style="fill:#000000;fill-opacity:0.5;stroke:none;stroke-width:1px;stroke-linecap:butt;stroke-linejoin:miter;stroke-opacity:1"
       d="m 11.157058,66.965115 c -0.74234,1.994216 -1.3445598,2.876397 -1.9141247,3.499432 0.641379,0.866062 1.2353987,0.977833 1.7703747,0.149212 -0.424134,-1.039404 -0.02511,-2.387127 0.14375,-3.648644 z M 34.64629,67.0349 c 1.115731,2.326987 1.350427,3.682396 1.379809,4.811388 1.395661,-0.136868 2.059095,-0.763214 1.809644,-1.999803 C 36.487475,69.599261 35.636389,68.148878 34.64629,67.0349 Z" />
    <path
       id="path10345-8"
       style="fill:#000000;fill-opacity:0.25;stroke:none;stroke-width:1px;stroke-linecap:butt;stroke-linejoin:miter;stroke-opacity:1"
       d="M 33.169449,58.115539 C 31.328248,52.106958 28.889812,46.96071 21.850253,48.457893 c 0,0 4.830761,0.860646 6.713294,2.545533 1.882533,1.684887 4.605902,7.112113 4.605902,7.112113 z m -22.3526,-9.285709 c -3.8432212,0.735985 -7.2279767,2.189182 -7.0807046,9.16781 0,0 1.044056,-4.467609 2.2693985,-5.978945 C 7.2308855,50.507359 10.816849,48.82983 10.816849,48.82983 Z M 0.48118348,44.00814 c 1.22438462,1.595773 2.09076732,1.463917 2.96215162,-0.522496 0,0 -1.0963966,0.902824 -1.6610454,1.022935 -0.564649,0.120069 -1.30110622,-0.50044 -1.30110622,-0.500439 z m 6.01246942,4.050992 c 0,0 -1.8461662,2.357885 -2.569317,3.2235 -0.7231514,0.865614 -2.1131894,2.647039 -2.1131894,2.647039 1.6158469,-1.175069 3.6165583,-2.919607 4.6825064,-5.870539 z m -6.26373792,4.631366 c 0,0 1.31128132,-1.772705 2.20052432,-2.695418 0.889243,-0.922712 3.1444359,-2.751512 3.1444359,-2.751512 -1.9135087,1.168813 -3.8720896,2.116515 -5.34496022,5.44693 z M 33.751452,45.898127 c 0,0 1.982081,1.415871 2.997978,2.44366 1.015897,1.02779 2.991732,3.758064 2.991732,3.758064 -1.2267,-2.409265 -2.190231,-4.935445 -5.98971,-6.201724 z m 3.906724,8.914125 c 0,0 -2.12124,-1.833521 -3.175701,-3.118414 -1.054461,-1.284893 -3.025993,-4.619405 -3.025993,-4.619405 1.146581,2.886157 1.978449,5.877217 6.201694,7.737819 z M 55.542634,41.419591 c 0,0 -4.08523,3.530786 -7.363303,4.090646 -3.278074,0.55986 -10.923652,-4.062016 -10.923652,-4.062016 3.554087,3.719102 13.228127,9.230618 18.286955,-0.02863 z M 2.3080413,34.133595 C 7.6633592,29.172946 13.259854,20.349413 11.235611,13.050004 c 0,0 -0.433796,5.354929 -1.825073,9.06887 C 8.0192601,25.832816 2.3080413,34.133595 2.3080413,34.133595 Z M 34.323864,13.410871 c 1.893005,10.810624 7.738121,30.709931 20.64743,25.294763 0,0 -3.41164,1.925734 -9.361052,-2.522837 C 39.660829,31.734225 34.323864,13.410871 34.323864,13.410871 Z" />
  </g>
</svg>
