<?xml version="1.0" encoding="UTF-8" standalone="no"?>
<svg
   height="14.818"
   width="17.834999"
   version="1.1"
   id="svg6"
   sodipodi:docname="2.svg"
   inkscape:version="1.1.1 (3bf5ae0d25, 2021-09-20)"
   xmlns:inkscape="http://www.inkscape.org/namespaces/inkscape"
   xmlns:sodipodi="http://sodipodi.sourceforge.net/DTD/sodipodi-0.dtd"
   xmlns="http://www.w3.org/2000/svg"
   xmlns:svg="http://www.w3.org/2000/svg">
  <defs
     id="defs10" />
  <sodipodi:namedview
     id="namedview8"
     pagecolor="#ffffff"
     bordercolor="#111111"
     borderopacity="1"
     inkscape:pageshadow="0"
     inkscape:pageopacity="0"
     inkscape:pagecheckerboard="1"
     showgrid="false"
     inkscape:zoom="20.866667"
     inkscape:cx="1.4616613"
     inkscape:cy="2.1325879"
     inkscape:window-width="1920"
     inkscape:window-height="991"
     inkscape:window-x="-9"
     inkscape:window-y="-9"
     inkscape:window-maximized="1"
     inkscape:current-layer="svg6" />
  <g
     id="g916">
    <path
       style="color:#000000;fill:#c5a4a4;stroke:none;stroke-linecap:round;stroke-linejoin:round;stroke-opacity:1;-inkscape-stroke:none"
       d="M 16.564552,0.03752801 A 1,1 0 0 0 15.96299,0.51018421 C 12.269963,7.0978131 9.366331,10.57141 7.3536144,11.976981 6.3472562,12.679766 5.6123363,12.856604 5.0938488,12.812918 4.5753613,12.769232 4.1656885,12.525262 3.7422863,12.016043 2.8954819,10.997605 2.2916569,8.9202825 2.0918957,7.0140905 1.9920151,6.0609947 1.9784014,5.1473922 2.0313488,4.443778 2.0842962,3.7401638 2.3065318,3.1865608 2.2364269,3.2894811 A 1,1 0 0 0 1.9747082,1.8988561 1,1 0 0 0 0.58408321,2.162528 C 0.142016,2.8115224 0.10126158,3.4441383 0.03720818,4.2953405 c -0.064053,0.8512022 -0.047185,1.8604924 0.064453,2.9257813 0.22327594,2.1305777 0.77185835,4.4726562 2.10351562,6.0742182 0.6658287,0.800781 1.6007669,1.415404 2.7207032,1.509766 1.1199363,0.09436 2.3174493,-0.311206 3.5722656,-1.1875 C 11.007778,11.865016 13.945456,8.1987815 17.707129,1.4886999 A 1,1 0 0 0 17.324318,0.12737171 1,1 0 0 0 16.564552,0.03752801 Z"
       id="path1087" />
  </g>
</svg>
