<?xml version="1.0" encoding="UTF-8" standalone="no"?>
<svg
   height="15.818"
   width="18.833"
   version="1.1"
   id="svg8"
   sodipodi:docname="6.svg"
   inkscape:version="1.1.1 (3bf5ae0d25, 2021-09-20)"
   xmlns:inkscape="http://www.inkscape.org/namespaces/inkscape"
   xmlns:sodipodi="http://sodipodi.sourceforge.net/DTD/sodipodi-0.dtd"
   xmlns="http://www.w3.org/2000/svg"
   xmlns:svg="http://www.w3.org/2000/svg">
  <defs
     id="defs12" />
  <sodipodi:namedview
     id="namedview10"
     pagecolor="#ffffff"
     bordercolor="#111111"
     borderopacity="1"
     inkscape:pageshadow="0"
     inkscape:pageopacity="0"
     inkscape:pagecheckerboard="1"
     showgrid="false"
     inkscape:zoom="27.665553"
     inkscape:cx="9.0907274"
     inkscape:cy="9.0184354"
     inkscape:window-width="1920"
     inkscape:window-height="991"
     inkscape:window-x="-9"
     inkscape:window-y="-9"
     inkscape:window-maximized="1"
     inkscape:current-layer="svg8" />
  <path
     style="color:#000000;fill:none;stroke:#000000;stroke-linecap:round;stroke-linejoin:round;stroke-opacity:1;-inkscape-stroke:none"
     d="M 17.064677,0.53748578 A 1,1 0 0 0 16.463115,1.010142 C 12.770088,7.5977709 9.8664559,11.071368 7.8537393,12.476939 6.8473811,13.179724 6.1124612,13.356562 5.5939737,13.312876 5.0754862,13.26919 4.6658134,13.02522 4.2424112,12.516001 3.3956068,11.497563 2.7917818,9.4202403 2.5920206,7.5140483 2.49214,6.5609525 2.4785263,5.64735 2.5314737,4.9437358 2.5844211,4.2401216 2.8066567,3.6865186 2.7365518,3.7894389 A 1,1 0 0 0 2.4748331,2.3988139 1,1 0 0 0 1.0842081,2.6624858 C 0.64214089,3.3114802 0.60138647,3.9440961 0.53733307,4.7952983 c -0.064053,0.8512022 -0.047185,1.8604924 0.064453,2.9257813 0.22327594,2.1305777 0.77185833,4.4726564 2.10351563,6.0742184 0.6658287,0.800781 1.6007669,1.415404 2.7207032,1.509766 1.1199363,0.09436 2.3174493,-0.311206 3.5722656,-1.1875 C 11.507903,12.364974 14.445581,8.6987393 18.207254,1.9886577 A 1,1 0 0 0 17.824443,0.62732948 1,1 0 0 0 17.064677,0.53748578 Z"
     id="path1087" />
</svg>
